<?xml version="1.0" standalone="no"?>
<!DOCTYPE svg PUBLIC "-//W3C//DTD SVG 20010904//EN"
 "http://www.w3.org/TR/2001/REC-SVG-20010904/DTD/svg10.dtd">
<svg version="1.0" xmlns="http://www.w3.org/2000/svg"
 width="64.000000pt" height="64.000000pt" viewBox="0 0 64.000000 64.000000"
 preserveAspectRatio="xMidYMid meet">
<metadata>
Created by potrace 1.15, written by Peter Selinger 2001-2017
</metadata>
<g transform="translate(0.000000,64.000000) scale(0.100000,-0.100000)"
fill="#000000" stroke="none">
<path d="M176 615 c-65 -31 -121 -88 -151 -152 -21 -43 -25 -67 -25 -143 0
-111 26 -175 96 -240 69 -63 113 -80 220 -80 81 0 97 3 152 30 70 35 114 82
148 154 33 70 34 205 3 271 -31 66 -90 127 -152 158 -49 24 -68 27 -149 27
-77 -1 -101 -5 -142 -25z m251 -16 c76 -29 143 -96 172 -172 25 -69 28 -122 5
-131 -31 -12 -44 -6 -44 19 0 25 -15 35 -22 14 -2 -6 -46 -11 -108 -13 l-105
-4 -5 -28 c-6 -28 -6 -28 -12 -5 -4 15 -12 22 -21 18 -8 -3 -19 -1 -25 5 -15
15 -32 1 -32 -28 0 -13 -5 -24 -10 -24 -6 0 -8 10 -4 24 6 23 -16 56 -38 56
-6 0 -16 8 -23 17 -12 15 -15 14 -44 -14 -31 -32 -40 -66 -20 -79 15 -9 -8
-24 -37 -24 -39 0 -46 107 -13 197 58 153 230 230 386 172z m132 -455 c2 -2
-12 -19 -32 -38 -83 -78 -206 -105 -307 -67 -57 21 -123 69 -140 102 -10 18
-4 18 232 12 134 -3 245 -7 247 -9z"/>
</g>
</svg>
